<svg width="20" height="14" viewBox="0 0 20 14" fill="none" xmlns="http://www.w3.org/2000/svg">
<path d="M12.5 2C14.5532 2 16.2256 3.65773 16.25 5.70363C16.2402 5.77934 16.2329 5.855 16.2305 5.93313L16.1987 6.85109L17.0679 7.15383C18.0737 7.50414 18.75 8.44773 18.75 9.5C18.75 10.8794 17.6294 12 16.25 12H3.75C2.37184 12 1.25 10.8794 1.25 9.5C1.25 8.13523 2.35109 7.02195 3.71094 7C3.76953 7.00855 3.83059 7.01586 3.8916 7.01953L4.84133 7.0818L5.15383 6.18457C5.50539 5.17629 6.44777 4.5 7.5 4.5C7.62207 4.5 7.75637 4.51465 7.93703 4.54641L8.81227 4.70387L9.24805 3.92871C9.91699 2.73977 11.1621 2 12.5 2ZM12.5 0.75C10.6274 0.75 9.01488 1.7925 8.15797 3.31594C7.94434 3.27809 7.72582 3.25 7.5 3.25C5.8618 3.25 4.48363 4.30715 3.9734 5.77199C3.89895 5.76711 3.82691 5.75 3.75 5.75C1.67969 5.75 0 7.42969 0 9.5C0 11.5703 1.67969 13.25 3.75 13.25H16.25C18.3203 13.25 20 11.5703 20 9.5C20 7.8618 18.9429 6.48242 17.478 5.97215C17.4805 5.89648 17.5 5.8257 17.5 5.75C17.5 2.98879 15.2613 0.75 12.5 0.75Z" fill="white"/>
</svg>
