<svg width="24" height="24" viewBox="0 0 24 24" fill="none" xmlns="http://www.w3.org/2000/svg">
<path d="M6.10178 1.49787V2.47491H6.59016H7.07855V1.49787V0.520834H6.59016H6.10178V1.49787Z" fill="white"/>
<path d="M2.11463 2.40149L1.76663 2.74949L2.42615 3.40901C2.78639 3.76925 3.10991 4.06229 3.14663 4.06229C3.22607 4.06229 3.78166 3.50045 3.78166 3.41501C3.78166 3.38453 3.48863 3.06077 3.12215 2.70053L2.46887 2.04725L2.11463 2.40149Z" fill="white"/>
<path d="M10.0216 2.73725L9.33789 3.42125L9.66141 3.74477C9.83853 3.91565 10.0094 4.06229 10.0399 4.06229C10.0766 4.06229 10.4001 3.76925 10.7604 3.40277L11.4136 2.74949L11.0594 2.39525L10.7114 2.04725L10.0216 2.73725Z" fill="white"/>
<path d="M6.22366 3.5129C4.33702 3.81218 2.95079 5.5157 3.06694 7.39011C3.14014 8.49531 3.70198 9.52707 4.58134 10.1683C4.89286 10.3882 4.89886 10.3819 4.96606 9.72867L5.00878 9.31971L4.76446 9.06315C4.62406 8.92275 4.41022 8.59899 4.28206 8.34867C4.06222 7.89075 4.05622 7.87251 4.05622 7.17627C4.05622 6.51075 4.06846 6.44955 4.25158 6.05883C4.48366 5.57042 4.99654 5.00258 5.41774 4.7765C6.24814 4.32458 7.29838 4.32458 8.12878 4.7765C8.54998 5.00234 9.06286 5.57018 9.29494 6.05883C9.47806 6.45579 9.4903 6.51075 9.4903 7.18851V7.90899H9.95446H10.4186L10.4613 7.67691C10.7361 5.99162 9.55774 4.15994 7.87246 3.64706C7.39006 3.50066 6.67558 3.43946 6.22366 3.5129Z" fill="white"/>
<path d="M0.23999 6.87104V7.35944H1.21703H2.19407V6.87104V6.38264H1.21703H0.23999V6.87104Z" fill="white"/>
<path d="M10.9865 6.87104V7.35944H11.9635H12.9405V6.87104V6.38264H11.9635H10.9865V6.87104Z" fill="white"/>
<path d="M5.64985 8.56252C5.63161 8.69068 5.28361 11.4444 4.88041 14.6868C4.47745 17.929 4.12945 20.6828 4.11097 20.8049L4.07425 21.037H8.04913H12.024V21.7697V22.5024H10.7112H9.39841V22.9908V23.4792H13.9778H18.5573V22.9908V22.5024H17.2445H15.9317V21.7697V21.037H19.8456H23.76L23.7233 20.8049C23.705 20.6828 23.3568 17.929 22.9541 14.6868C22.5511 11.4447 22.2031 8.69092 22.1846 8.56252L22.1479 8.33668H13.9171H5.68657L5.64985 8.56252ZM10.9865 9.44788C10.9865 9.61276 10.8216 11.359 10.7666 11.7375L10.7362 12H8.47681H6.22369V11.8596C6.22369 11.7864 6.29089 11.1879 6.37633 10.5346C6.46177 9.88132 6.52897 9.33772 6.52897 9.32572C6.52897 9.31972 7.53025 9.31348 8.75761 9.31348H10.9862V9.44788H10.9865ZM16.3596 9.41716C16.3596 9.47812 16.4146 10.0767 16.4818 10.7482C16.549 11.4197 16.6039 11.9756 16.6039 11.9816C16.6039 11.9938 15.505 11.9998 14.1554 11.9998H11.707L11.7437 11.7068C11.7864 11.3832 11.9635 9.5086 11.9635 9.38644C11.9635 9.33148 12.4459 9.31324 14.1617 9.31324C16.213 9.31348 16.3596 9.31948 16.3596 9.41716ZM21.3053 9.32572C21.3053 9.33796 21.3725 9.88132 21.4579 10.5346C21.5434 11.1879 21.6106 11.7864 21.6106 11.8596V12H19.5955H17.5867L17.5562 11.7984C17.5135 11.5541 17.3364 9.61252 17.3364 9.44164C17.3364 9.31348 17.3546 9.31348 19.3207 9.31348C20.4139 9.31348 21.3053 9.31948 21.3053 9.32572ZM10.62 13.1724C10.62 13.4228 10.3819 16.0728 10.3392 16.256L10.3147 16.3964H7.99441H5.67409V16.2682C5.67409 16.0971 6.04033 13.1542 6.07105 13.0503C6.08929 12.9953 6.60217 12.9771 8.36089 12.9771H10.62V13.1724ZM16.8298 14.4118C16.903 15.1812 16.9762 15.9444 16.9946 16.1031L17.0251 16.3961H14.1554H11.2855L11.316 16.1945C11.3342 16.0906 11.4077 15.3519 11.4809 14.5642C11.5481 13.7765 11.6153 13.0928 11.6275 13.05C11.652 12.9891 12.1894 12.9768 14.1737 12.9891L16.6954 13.0073L16.8298 14.4118ZM21.9588 14.5035C22.0627 15.3279 22.1542 16.0911 22.1542 16.1948L22.1602 16.3964H20.0842H18.0082L17.9837 16.256C17.9654 16.1828 17.892 15.4745 17.825 14.6868C17.7581 13.8992 17.6846 13.1907 17.6664 13.1112L17.6419 12.9768L19.6997 12.9891L21.7634 13.0073L21.9588 14.5035ZM10.2293 17.538C10.211 17.6357 10.1498 18.2403 10.0949 18.8813L9.99121 20.0597H7.57945H5.17369L5.20417 19.8888C5.22241 19.7972 5.29585 19.1928 5.37505 18.5456L5.51545 17.3732H7.89073H10.266L10.2293 17.538ZM17.1168 17.5076C17.1535 17.6847 17.3366 19.6812 17.3366 19.8951V20.06H14.1614H10.9862V19.9013C10.9862 19.6815 11.1694 17.6727 11.2061 17.5078L11.2306 17.3734H14.1614H17.0923L17.1168 17.5076ZM22.4472 18.4419C22.5204 19.0097 22.5938 19.608 22.6121 19.7669L22.6548 20.06H20.4934H18.3319L18.228 18.912C18.173 18.2832 18.1058 17.6787 18.0876 17.5688L18.0571 17.3734L20.1821 17.3856L22.313 17.4039L22.4472 18.4419ZM14.9554 21.7695V22.5022H13.9783H13.0013V21.7695V21.0368H13.9783H14.9554V21.7695Z" fill="white"/>
<path d="M2.40769 10.3515L1.73593 11.023L2.09017 11.371L2.43817 11.7253L3.10993 11.0535C3.47616 10.687 3.78168 10.3575 3.78168 10.3208C3.78168 10.2413 3.21985 9.67973 3.13441 9.67973C3.10369 9.67973 2.77393 9.98501 2.40769 10.3515Z" fill="white"/>
</svg>
